# Blender v2.77 (sub 0) OBJ File: ''
# www.blender.org
mtllib PA4ColorBox.mtl
o Cube
v 1.000000 -0.243758 -3.094562
v 1.000000 -0.243758 3.094563
v -1.000000 -0.243758 3.094562
v -1.000000 -0.243758 -3.094564
v 1.000000 0.243758 -3.094561
v 0.999999 0.243758 3.094564
v -1.000000 0.243758 3.094561
v -1.000000 0.243758 -3.094563
v 0.899000 -0.219139 -2.782012
v -0.899000 -0.219139 -2.782013
v -0.899000 -0.219139 2.782011
v 0.899000 -0.219139 2.782012
v 0.898999 0.243758 2.782013
v 0.899000 0.243758 -2.782010
v -0.899000 0.243758 2.782011
v -0.899000 0.243758 -2.782012
vn 0.0000 -1.0000 0.0000
vn 1.0000 -0.0000 0.0000
vn -0.0000 -0.0000 1.0000
vn -1.0000 -0.0000 -0.0000
vn 0.0000 0.0000 -1.0000
vn 0.0000 1.0000 -0.0000
usemtl Material.002
s off
f 2//1 4//1 1//1
f 5//2 2//2 1//2
f 6//3 3//3 2//3
f 3//4 8//4 4//4
f 1//5 8//5 5//5
f 6//6 15//6 7//6
f 5//6 13//6 6//6
f 7//6 16//6 8//6
f 8//6 14//6 5//6
f 2//1 3//1 4//1
f 5//2 6//2 2//2
f 6//3 7//3 3//3
f 3//4 7//4 8//4
f 1//5 4//5 8//5
f 6//6 13//6 15//6
f 5//6 14//6 13//6
f 7//6 15//6 16//6
f 8//6 16//6 14//6
usemtl Material.003
f 10//6 12//6 9//6
f 12//4 14//4 9//4
f 11//5 13//5 12//5
f 10//2 15//2 11//2
f 16//3 9//3 14//3
f 10//6 11//6 12//6
f 12//4 13//4 14//4
f 11//5 15//5 13//5
f 10//2 16//2 15//2
f 16//3 10//3 9//3
