# Blender v2.76 (sub 0) OBJ File: ''
# www.blender.org
mtllib pinballTable12.mtl
o Cube.002
v -6.919497 -0.991783 -8.530019
v -6.919498 -0.991787 11.843445
v -6.919497 0.991785 11.843449
v -6.919493 0.991789 -8.530025
v 7.404848 0.991785 -8.530008
v -4.067159 0.991783 16.655849
v -5.960029 0.991783 14.491735
v -5.960031 -0.991789 14.491733
v 1.446735 0.991783 18.126644
v -0.961393 0.991783 18.126644
v -0.961395 -0.991789 18.126638
v 1.446737 -0.991789 18.126640
v 4.552503 -0.991789 16.655849
v -4.067161 -0.991789 16.655842
v 7.404843 -0.991787 -8.530016
v 7.404841 0.991781 11.843454
v 7.404841 -0.991791 11.843451
v 6.445374 0.991781 14.491741
v 6.445374 -0.991791 14.491739
v 4.552504 0.991783 16.655853
v -5.390967 -1.008480 10.620932
v -5.390962 0.982155 10.620932
v -5.390960 0.982157 -8.462448
v -6.328545 -0.991787 11.739695
v -6.495247 -0.991783 -8.105768
v -6.495243 0.991789 -8.105774
v 6.980597 0.991785 -8.105761
v -5.443308 -0.991789 14.186817
v -5.443306 0.991783 14.186819
v -3.705387 0.991783 16.177197
v -0.829791 0.991783 17.541256
v 1.315133 0.991783 17.541256
v 1.315135 -0.991789 17.541252
v 4.190731 -0.991789 16.177197
v -3.705389 -0.991789 16.177191
v 6.813888 0.991781 11.739704
v 6.980593 -0.991787 -8.105766
v 5.928651 0.991783 14.186826
v 6.813888 -0.991791 11.739702
v 4.190732 0.991783 16.177200
v 5.928651 -0.991789 14.186823
v -4.790962 0.982155 10.620932
v -4.790967 -1.008480 10.620932
v -4.790965 -1.008479 -8.462448
v -0.829793 -0.991789 17.541250
v -6.328543 0.991785 11.739697
v -5.390965 -1.008479 -8.462448
v -4.790961 0.982157 -8.462448
v -2.476041 0.939996 -4.904189
v -2.476041 -1.000000 -4.904189
v -5.361255 -1.000000 -2.994961
v -4.178586 0.939996 -2.833975
v -4.178586 -1.000000 -2.833974
v -4.803442 0.939996 -0.636768
v -4.803442 -1.000000 -0.636768
v -5.361255 0.939996 -2.994961
v 6.924797 0.968814 -0.598432
v 6.924797 -1.000000 -0.598432
v 7.399770 -1.000000 -2.786402
v 6.191432 0.968814 -2.798633
v 6.191432 -1.000000 -2.798633
v 4.646649 0.968814 -4.798219
v 4.646649 -1.000000 -4.798219
v 7.399770 0.968814 -2.786402
vt 0.855277 0.521648
vt 0.855277 0.948790
vt 0.819135 0.948790
vt 0.108683 0.863243
vt 0.072541 0.863242
vt 0.072541 0.571574
vt 0.144825 0.626027
vt 0.144825 0.571574
vt 0.180967 0.571574
vt 0.144825 0.747735
vt 0.144825 0.699486
vt 0.180967 0.699486
vt 0.180967 0.747735
vt 0.180967 0.798729
vt 0.180967 0.626027
vt 0.819135 0.536106
vt 0.782993 0.536105
vt 0.782993 0.116004
vt 0.819135 0.116004
vt 0.782993 0.055754
vt 0.855277 1.000000
vt 0.819135 1.000000
vt 0.819135 0.055754
vt 0.782993 0.000000
vt 0.036271 0.973139
vt 0.000000 0.973139
vt 0.000000 0.571574
vt 0.782993 0.944340
vt 0.108683 0.841573
vt 0.108683 0.571574
vt 0.217109 0.781115
vt 0.180967 0.781115
vt 0.180967 0.732352
vt 0.180967 0.664634
vt 0.180967 0.620959
vt 0.217108 0.620959
vt 0.217109 0.571574
vt 0.217109 0.732353
vt 0.819135 0.416822
vt 0.819135 0.000000
vt 0.855277 0.000000
vt 0.819135 0.472106
vt 0.855277 0.416822
vt 0.819135 0.989594
vt 0.782993 0.989594
vt 0.819135 0.521648
vt 0.855277 0.472106
vt 0.072541 0.966520
vt 0.036271 0.966520
vt 0.036271 0.571574
vt 0.260998 0.571573
vt 0.268728 0.562477
vt 0.514265 0.562477
vt 0.007730 0.562477
vt 0.253268 0.562477
vt 0.152438 0.000000
vt 0.209026 0.031537
vt 0.202435 0.041800
vt 0.369558 0.000000
vt 0.371956 0.012552
vt 0.319561 0.041800
vt 0.413435 0.000000
vt 0.470024 0.031537
vt 0.463432 0.041800
vt 0.108560 0.000000
vt 0.110958 0.012552
vt 0.058563 0.041800
vt 0.411037 0.012552
vt 0.150040 0.012552
vt 0.278480 0.077940
vt 0.287895 0.084478
vt 0.271765 0.136949
vt 0.243516 0.077940
vt 0.260998 0.134725
vt 0.250230 0.136949
vt 0.017482 0.077940
vt 0.026897 0.084478
vt 0.010768 0.136949
vt 0.504513 0.077940
vt 0.521995 0.134725
vt 0.511228 0.136949
vt 0.312969 0.031537
vt 0.234101 0.084478
vt 0.521995 0.571573
vt 0.495098 0.084478
vt 0.000000 0.134725
vt 0.051971 0.031537
vt 0.000000 1.000000
vt 0.000000 0.000001
vt 0.228041 0.982264
vt 0.217109 0.982264
vt 0.548900 0.656940
vt 0.538685 0.656940
vt 0.538685 0.614257
vt 0.228041 0.571574
vt 0.238973 0.571574
vt 0.238973 0.982264
vt 0.573967 0.540037
vt 0.539478 0.493634
vt 0.731022 0.540036
vt 0.144825 0.798729
vt 0.819135 0.944340
vt 0.144825 0.841573
vt 0.217108 0.664634
vt 0.548900 0.614257
vt 0.674433 0.571573
vt 0.630556 0.571573
vt 0.521995 0.436849
vt 0.765511 0.493634
vt 0.782993 0.436849
vt 0.521995 0.000000
vt 0.309669 0.671504
vt 0.274321 0.671504
vt 0.274321 0.618507
vt 0.238973 0.620554
vt 0.274321 0.620554
vt 0.274321 0.673253
vt 0.274321 0.571574
vt 0.309669 0.618507
vt 0.538685 0.675800
vt 0.529511 0.619350
vt 0.538685 0.571574
vt 0.329992 0.619350
vt 0.339165 0.675800
vt 0.309669 0.610238
vt 0.493639 0.619483
vt 0.457766 0.619483
vt 0.457766 0.571574
vt 0.493639 0.617796
vt 0.529511 0.617796
vt 0.529511 0.660628
vt 0.493639 0.571574
vt 0.421893 0.571574
vt 0.457766 0.641152
vt 0.368661 0.607956
vt 0.395277 0.571574
vt 0.387908 0.620540
vt 0.414523 0.625055
vt 0.421893 0.674021
vt 0.395277 0.637639
vt 0.238973 0.673253
vt 0.309669 0.571574
vt 0.339165 0.637135
vt 0.368661 0.571574
vt 0.368661 0.675800
vt 0.339165 0.571574
vt 0.493639 0.660628
vt 0.529511 0.571574
vt 0.421893 0.641152
vt 0.395277 0.674021
vn -1.000000 0.000000 -0.000000
vn 0.000000 -0.000000 -1.000000
vn -0.752700 -0.000000 0.658400
vn -0.000000 -0.000000 1.000000
vn 0.428000 -0.000000 0.903800
vn -0.428000 -0.000000 0.903800
vn 1.000000 -0.000000 0.000000
vn 0.940200 -0.000000 0.340600
vn -0.940200 -0.000000 0.340600
vn 0.752700 -0.000000 0.658400
vn 1.000000 -0.000000 -0.008400
vn 0.753300 0.000000 -0.657700
vn -0.428600 0.000000 -0.903500
vn 0.428600 0.000000 -0.903500
vn -1.000000 0.000000 -0.008400
vn -0.940400 0.000000 -0.340200
vn 0.940400 -0.000000 -0.340200
vn -0.753300 0.000000 -0.657700
vn -0.000000 -1.000000 -0.000000
vn 0.000000 1.000000 0.000000
vn -0.551800 0.000000 -0.833900
vn 0.772400 0.000000 0.635200
vn 0.961900 0.000000 0.273500
vn -0.973100 0.000000 0.230200
vn 0.977200 -0.000000 0.212100
vn -0.948700 -0.000000 0.316200
vn -0.791400 0.000000 0.611400
vn 0.590000 0.000000 -0.807400
usemtl Material.001
s 1
f 1/1/1 2/2/1 3/3/1
f 1/4/2 4/5/2 5/6/2
f 6/7/3 7/8/3 8/9/3
f 9/10/4 10/11/4 11/12/4
f 9/10/5 12/13/5 13/14/5
f 10/11/6 6/7/6 14/15/6
f 15/16/7 5/17/7 16/18/7
f 17/19/8 16/18/8 18/20/8
f 2/2/9 8/21/9 7/22/9
f 19/23/10 18/20/10 20/24/10
f 21/25/1 22/26/1 23/27/1
f 24/28/11 25/17/11 26/16/11
f 27/29/4 26/30/4 25/8/4
f 28/31/12 29/32/12 30/33/12
f 31/34/2 32/35/2 33/36/2
f 34/37/13 33/36/13 32/35/13
f 35/38/14 30/33/14 31/34/14
f 36/39/15 27/40/15 37/41/15
f 38/42/16 36/39/16 39/43/16
f 29/44/17 28/45/17 24/28/17
f 40/46/18 38/42/18 41/47/18
f 42/48/7 43/49/7 44/50/7
f 15/51/19 37/52/19 25/53/19
f 4/27/20 26/54/20 27/55/20
f 9/56/20 20/57/20 40/58/20
f 12/59/19 33/60/19 34/61/19
f 11/62/19 14/63/19 35/64/19
f 10/65/20 31/66/20 30/67/20
f 12/59/19 11/62/19 45/68/19
f 9/56/20 32/69/20 31/66/20
f 19/70/19 41/71/19 39/72/19
f 18/73/20 16/74/20 36/75/20
f 7/76/20 29/77/20 46/78/20
f 8/79/19 2/80/19 24/81/19
f 13/82/19 34/61/19 41/71/19
f 20/57/20 18/73/20 38/83/20
f 15/51/19 17/74/19 39/72/19
f 5/51/20 27/55/20 36/75/20
f 1/84/19 25/53/19 24/81/19
f 14/63/19 8/79/19 28/85/19
f 4/27/20 3/86/20 46/78/20
f 6/87/20 30/67/20 29/77/20
f 47/88/2 23/89/2 48/41/2
f 47/90/19 44/91/19 43/37/19
f 21/92/4 43/93/4 42/94/4
f 22/95/20 42/96/20 48/97/20
f 13/98/20 19/99/20 14/100/20
f 4/46/1 1/1/1 3/3/1
f 15/30/2 1/4/2 5/6/2
f 14/15/3 6/7/3 8/9/3
f 12/13/4 9/10/4 11/12/4
f 20/101/5 9/10/5 13/14/5
f 11/12/6 10/11/6 14/15/6
f 17/19/7 15/16/7 16/18/7
f 19/23/8 17/19/8 18/20/8
f 3/3/9 2/2/9 7/22/9
f 13/40/10 19/23/10 20/24/10
f 47/50/1 21/25/1 23/27/1
f 46/102/11 24/28/11 26/16/11
f 37/103/4 27/29/4 25/8/4
f 35/38/12 28/31/12 30/33/12
f 45/104/2 31/34/2 33/36/2
f 40/9/13 34/37/13 32/35/13
f 45/104/14 35/38/14 31/34/14
f 39/43/15 36/39/15 37/41/15
f 41/47/16 38/42/16 39/43/16
f 46/102/17 29/44/17 24/28/17
f 34/1/18 40/46/18 41/47/18
f 48/6/7 42/48/7 44/50/7
f 1/84/19 15/51/19 25/53/19
f 5/51/20 4/27/20 27/55/20
f 32/69/20 9/56/20 40/58/20
f 13/82/19 12/59/19 34/61/19
f 45/68/19 11/62/19 35/64/19
f 6/87/20 10/65/20 30/67/20
f 33/60/19 12/59/19 45/68/19
f 10/65/20 9/56/20 31/66/20
f 17/74/19 19/70/19 39/72/19
f 38/83/20 18/73/20 36/75/20
f 3/86/20 7/76/20 46/78/20
f 28/85/19 8/79/19 24/81/19
f 19/70/19 13/82/19 41/71/19
f 40/58/20 20/57/20 38/83/20
f 37/52/19 15/51/19 39/72/19
f 16/74/20 5/51/20 36/75/20
f 2/80/19 1/84/19 24/81/19
f 35/64/19 14/63/19 28/85/19
f 26/54/20 4/27/20 46/78/20
f 7/76/20 6/87/20 29/77/20
f 44/21/2 47/88/2 48/41/2
f 21/95/19 47/90/19 43/37/19
f 22/105/4 21/92/4 42/94/4
f 23/90/20 22/95/20 48/97/20
f 11/106/20 12/107/20 13/98/20
f 17/108/20 8/109/20 19/99/20
f 1/24/20 2/110/20 15/111/20
f 8/109/20 17/108/20 2/110/20
f 11/106/20 13/98/20 14/100/20
f 2/110/20 17/108/20 15/111/20
f 19/99/20 8/109/20 14/100/20
f 49/112/21 50/113/21 51/114/21
f 52/115/22 53/116/22 50/117/22
f 54/96/23 55/118/23 53/116/23
f 56/119/24 51/114/24 55/118/24
f 50/120/19 53/121/20 55/122/19
f 52/123/20 49/124/20 56/125/20
f 57/126/25 58/127/25 59/128/25
f 60/129/26 61/130/26 58/131/26
f 62/130/27 63/129/27 61/132/27
f 64/133/28 59/128/28 63/134/28
f 59/135/19 58/136/19 61/137/19
f 60/138/20 57/139/20 64/140/20
f 56/119/21 49/112/21 51/114/21
f 49/141/22 52/115/22 50/117/22
f 52/115/23 54/96/23 53/116/23
f 54/142/24 56/119/24 55/118/24
f 51/143/19 50/144/19 55/145/19
f 54/146/20 52/123/20 56/125/20
f 64/132/25 57/126/25 59/128/25
f 57/147/26 60/129/26 58/131/26
f 60/148/27 62/130/27 61/132/27
f 62/149/28 64/133/28 63/134/28
f 63/150/19 59/135/19 61/137/19
f 62/133/20 60/138/20 64/140/20
