# Blender v2.76 (sub 0) OBJ File: ''
# www.blender.org
mtllib plunger3.mtl
o Cylinder.002
v -5.952478 -0.733726 -1.332549
v -5.903706 -0.743332 -1.332549
v -5.903706 -0.743334 -8.174072
v -5.856808 -0.771786 -1.332549
v -5.856808 -0.771786 -8.174072
v -5.813585 -0.817990 -1.332549
v -5.813585 -0.817992 -8.174072
v -5.775702 -0.880172 -1.332549
v -5.775702 -0.880172 -8.174072
v -5.744611 -0.955940 -1.332549
v -5.744611 -0.955940 -8.174072
v -5.721509 -1.042384 -1.332549
v -5.721509 -1.042384 -8.174072
v -5.707282 -1.136180 -1.332549
v -5.707282 -1.136180 -8.174072
v -5.702478 -1.233726 -1.332549
v -5.702478 -1.233726 -8.174072
v -5.707282 -1.331270 -1.332549
v -5.707282 -1.331272 -8.174072
v -5.721509 -1.425068 -1.332549
v -5.721509 -1.425068 -8.174072
v -5.744611 -1.511510 -1.332549
v -5.744611 -1.511512 -8.174072
v -5.775702 -1.587278 -1.332549
v -5.813585 -1.649460 -1.332549
v -5.813585 -1.649460 -8.174072
v -5.856808 -1.695666 -1.332549
v -5.856808 -1.695666 -8.174072
v -5.903706 -1.724118 -1.332549
v -5.903706 -1.724118 -8.174072
v -5.952478 -1.733727 -1.332549
v -5.952478 -1.733726 -8.174072
v -6.001251 -1.724118 -1.332549
v -6.001251 -1.724118 -8.174072
v -6.048149 -1.695666 -1.332549
v -6.048149 -1.695666 -8.174072
v -6.091371 -1.649460 -1.332549
v -6.091371 -1.649460 -8.174072
v -6.129255 -1.587278 -1.332549
v -6.129255 -1.587280 -8.174072
v -6.160346 -1.511510 -1.332549
v -6.160346 -1.511510 -8.174072
v -6.183448 -1.425066 -1.332549
v -6.183448 -1.425068 -8.174072
v -6.197675 -1.331270 -1.332549
v -6.197675 -1.331270 -8.174072
v -6.202478 -1.233724 -1.332549
v -6.202478 -1.233726 -8.174072
v -6.197675 -1.136180 -1.332549
v -6.197675 -1.136180 -8.174072
v -6.183448 -1.042384 -1.332549
v -6.183448 -1.042384 -8.174072
v -6.160346 -0.955940 -1.332549
v -6.160346 -0.955940 -8.174072
v -6.129254 -0.880172 -1.332549
v -6.129254 -0.880172 -8.174072
v -6.091371 -0.817990 -1.332549
v -6.091371 -0.817990 -8.174072
v -6.048148 -0.771786 -1.332549
v -6.048148 -0.771786 -8.174072
v -6.001250 -0.743332 -1.332549
v -5.952478 -0.733726 -8.174072
v -6.001250 -0.743334 -8.174072
v -5.775702 -1.587280 -8.174072
vt 0.034567 0.000000
vt 0.047200 0.000000
vt 0.047200 0.999987
vt 0.059591 0.000000
vt 0.059590 0.999987
vt 0.071262 0.000000
vt 0.071262 0.999987
vt 0.081767 0.000000
vt 0.081766 0.999987
vt 0.090700 0.000000
vt 0.090699 0.999987
vt 0.272099 0.999987
vt 0.261595 0.999987
vt 0.261595 0.000000
vt 0.249923 0.999987
vt 0.249923 0.000000
vt 0.237532 0.999987
vt 0.237532 0.000000
vt 0.224899 0.999987
vt 0.224899 0.000000
vt 0.212508 0.999987
vt 0.212508 0.000000
vt 0.200837 0.999987
vt 0.200837 0.000000
vt 0.190333 0.999987
vt 0.181399 0.999987
vt 0.181399 0.000000
vt 0.353865 0.999987
vt 0.343361 0.999987
vt 0.343361 0.000000
vt 0.331689 0.999987
vt 0.331689 0.000000
vt 0.319299 0.999987
vt 0.319299 0.000000
vt 0.306665 0.999987
vt 0.306665 0.000000
vt 0.294275 0.999987
vt 0.294275 0.000000
vt 0.282603 0.999987
vt 0.282603 0.000000
vt 0.272099 0.000000
vt 0.491067 1.000000
vt 0.482134 0.999974
vt 0.491067 0.000000
vt 0.170895 0.999987
vt 0.170895 0.000000
vt 0.159223 0.999987
vt 0.159223 0.000000
vt 0.146833 0.999987
vt 0.146833 0.000000
vt 0.134199 0.999987
vt 0.134199 0.000000
vt 0.121809 0.999987
vt 0.121809 0.000000
vt 0.110137 0.999987
vt 0.110137 0.000000
vt 0.099633 0.999987
vt 0.099633 0.000000
vt 0.000000 0.000000
vt 0.010505 0.000000
vt 0.010504 0.999987
vt 0.411684 0.072730
vt 0.368184 0.059547
vt 0.377116 0.008119
vt 0.022176 0.000000
vt 0.034567 0.999987
vt 0.022176 0.999987
vt 0.436706 0.074128
vt 0.474834 0.091870
vt 0.448379 0.141322
vt 0.190332 0.000000
vt 0.353865 0.000000
vt 0.500000 0.000000
vt 0.500000 1.000000
vt 0.000000 0.999987
vt 0.387620 0.004139
vt 0.399291 0.001398
vt 0.411682 0.000000
vt 0.424315 0.000000
vt 0.436706 0.001397
vt 0.467815 0.013183
vt 0.448378 0.004139
vt 0.458882 0.008118
vt 0.474834 0.019139
vt 0.479669 0.025757
vt 0.482134 0.032783
vt 0.482133 0.039946
vt 0.479669 0.046972
vt 0.474835 0.053590
vt 0.467816 0.059546
vt 0.458883 0.064612
vt 0.448379 0.068591
vt 0.436707 0.071333
vt 0.424317 0.072730
vt 0.399293 0.071333
vt 0.387621 0.068592
vt 0.377117 0.064612
vt 0.361165 0.053591
vt 0.356330 0.046973
vt 0.353865 0.039947
vt 0.353865 0.032784
vt 0.356330 0.025758
vt 0.361164 0.019140
vt 0.368183 0.013184
vt 0.436707 0.144063
vt 0.424316 0.145461
vt 0.411683 0.145461
vt 0.399292 0.144063
vt 0.387621 0.141322
vt 0.377117 0.137342
vt 0.368183 0.132277
vt 0.361165 0.126321
vt 0.356330 0.119703
vt 0.356330 0.098488
vt 0.353865 0.112677
vt 0.353865 0.105514
vt 0.361164 0.091870
vt 0.368183 0.085914
vt 0.377116 0.080849
vt 0.387620 0.076869
vt 0.399292 0.074128
vt 0.448378 0.076869
vt 0.458882 0.080849
vt 0.467815 0.085914
vt 0.479669 0.098488
vt 0.482133 0.105514
vt 0.482133 0.112677
vt 0.479669 0.119703
vt 0.474834 0.126321
vt 0.467816 0.132277
vt 0.458883 0.137342
vn 0.193200 0.981200 -0.000000
vn 0.193300 0.981100 0.000000
vn 0.518700 0.854900 0.000000
vn 0.518700 0.855000 -0.000000
vn 0.730300 0.683200 -0.000000
vn 0.730300 0.683100 0.000000
vn 0.854000 0.520300 0.000000
vn 0.925100 0.379600 0.000000
vn 0.966100 0.258200 0.000000
vn 0.988700 0.150000 0.000000
vn 0.998800 0.049200 0.000000
vn 0.998800 -0.049200 0.000000
vn 0.988700 -0.150000 -0.000000
vn 0.966100 -0.258200 0.000000
vn 0.925100 -0.379600 0.000000
vn 0.854000 -0.520300 -0.000000
vn 0.730300 -0.683100 -0.000000
vn 0.518700 -0.855000 -0.000000
vn 0.193300 -0.981100 -0.000000
vn -0.193300 -0.981100 -0.000000
vn -0.518700 -0.855000 -0.000000
vn -0.730300 -0.683100 -0.000000
vn -0.854000 -0.520300 0.000000
vn -0.925100 -0.379600 -0.000000
vn -0.966100 -0.258200 0.000000
vn -0.988700 -0.150000 0.000000
vn -0.998800 -0.049200 0.000000
vn -0.998800 0.049200 0.000000
vn -0.988700 0.150000 0.000000
vn -0.966100 0.258200 0.000000
vn -0.925100 0.379600 0.000000
vn -0.854000 0.520300 0.000000
vn -0.730300 0.683200 0.000000
vn -0.000000 0.000000 1.000000
vn -0.193200 0.981200 0.000000
vn -0.193300 0.981100 -0.000000
vn -0.518700 0.855000 -0.000000
vn -0.000000 0.000000 -1.000000
vn 0.000100 0.000000 -1.000000
vn -0.000100 0.000000 -1.000000
usemtl Material.010
s 1
f 1/1/1 2/2/1 3/3/2
f 2/2/3 4/4/3 5/5/4
f 4/4/5 6/6/5 7/7/6
f 6/6/7 8/8/7 9/9/7
f 8/8/8 10/10/8 11/11/8
f 10/12/9 12/13/9 13/14/9
f 12/13/10 14/15/10 15/16/10
f 14/15/11 16/17/11 17/18/11
f 16/17/12 18/19/12 19/20/12
f 18/19/13 20/21/13 21/22/13
f 20/21/14 22/23/14 23/24/14
f 23/24/15 22/23/15 24/25/15
f 24/25/16 25/26/16 26/27/16
f 25/28/17 27/29/17 28/30/17
f 27/29/18 29/31/18 30/32/18
f 29/31/19 31/33/19 32/34/19
f 31/33/20 33/35/20 34/36/20
f 33/35/21 35/37/21 36/38/21
f 35/37/22 37/39/22 38/40/22
f 37/39/23 39/12/23 40/41/23
f 39/42/24 41/43/24 42/44/24
f 41/26/25 43/45/25 44/46/25
f 43/45/26 45/47/26 46/48/26
f 45/47/27 47/49/27 48/50/27
f 47/49/28 49/51/28 50/52/28
f 49/51/29 51/53/29 52/54/29
f 51/53/30 53/55/30 54/56/30
f 53/55/31 55/57/31 56/58/31
f 55/57/32 57/11/32 58/10/32
f 57/59/33 59/60/33 60/61/33
f 27/62/34 20/63/34 4/64/34
f 61/65/35 1/1/35 62/66/36
f 59/60/37 61/65/37 63/67/37
f 38/68/38 46/69/38 63/70/38
f 62/66/2 1/1/1 3/3/2
f 3/3/4 2/2/3 5/5/4
f 5/5/6 4/4/5 7/7/6
f 7/7/7 6/6/7 9/9/7
f 9/9/8 8/8/8 11/11/8
f 11/41/9 10/12/9 13/14/9
f 13/14/10 12/13/10 15/16/10
f 15/16/11 14/15/11 17/18/11
f 17/18/12 16/17/12 19/20/12
f 19/20/13 18/19/13 21/22/13
f 21/22/14 20/21/14 23/24/14
f 64/71/15 23/24/15 24/25/15
f 64/71/16 24/25/16 26/27/16
f 26/72/17 25/28/17 28/30/17
f 28/30/18 27/29/18 30/32/18
f 30/32/19 29/31/19 32/34/19
f 32/34/20 31/33/20 34/36/20
f 34/36/21 33/35/21 36/38/21
f 36/38/22 35/37/22 38/40/22
f 38/40/23 37/39/23 40/41/23
f 40/42/24 39/73/24 42/74/24
f 42/27/25 41/26/25 44/46/25
f 44/46/26 43/45/26 46/48/26
f 46/48/27 45/47/27 48/50/27
f 48/50/28 47/49/28 50/52/28
f 50/52/29 49/51/29 52/54/29
f 52/54/30 51/53/30 54/56/30
f 54/56/31 53/55/31 56/58/31
f 56/58/32 55/57/32 58/10/32
f 58/75/33 57/59/33 60/61/33
f 4/64/34 2/76/34 1/77/34
f 1/77/34 61/78/34 59/79/34
f 59/79/34 57/80/34 51/81/34
f 55/82/34 53/83/34 51/81/34
f 51/81/34 49/84/34 47/85/34
f 47/85/34 45/86/34 51/81/34
f 43/87/34 41/88/34 39/89/34
f 39/89/34 37/90/34 43/87/34
f 35/91/34 33/92/34 27/62/34
f 31/93/34 29/94/34 27/62/34
f 27/62/34 25/95/34 24/96/34
f 24/96/34 22/97/34 27/62/34
f 20/63/34 18/98/34 16/99/34
f 16/99/34 14/100/34 12/101/34
f 12/101/34 10/102/34 8/103/34
f 8/103/34 6/104/34 4/64/34
f 4/64/34 1/77/34 51/81/34
f 57/80/34 55/82/34 51/81/34
f 51/81/34 45/86/34 43/87/34
f 43/87/34 37/90/34 35/91/34
f 33/92/34 31/93/34 27/62/34
f 27/62/34 22/97/34 20/63/34
f 20/63/34 16/99/34 12/101/34
f 12/101/34 8/103/34 20/63/34
f 1/77/34 59/79/34 51/81/34
f 51/81/34 43/87/34 35/91/34
f 35/91/34 27/62/34 4/64/34
f 20/63/34 8/103/34 4/64/34
f 4/64/34 51/81/34 35/91/34
f 63/67/36 61/65/35 62/66/36
f 60/61/37 59/60/37 63/67/37
f 63/70/38 62/105/38 3/106/38
f 3/106/38 5/107/38 7/108/38
f 7/108/38 9/109/38 11/110/38
f 11/110/38 13/111/39 15/112/38
f 15/112/38 17/113/40 23/114/38
f 19/115/38 21/116/39 23/114/38
f 23/114/38 64/117/38 26/118/38
f 26/118/38 28/119/38 23/114/38
f 30/120/38 32/121/38 34/62/38
f 34/62/38 36/94/38 38/68/38
f 38/68/38 40/122/40 42/123/38
f 42/123/38 44/124/38 38/68/38
f 46/69/38 48/125/38 50/126/38
f 50/126/38 52/127/38 46/69/38
f 54/128/38 56/129/38 58/130/38
f 58/130/38 60/131/38 63/70/38
f 63/70/38 3/106/38 7/108/38
f 7/108/38 11/110/38 63/70/38
f 17/113/40 19/115/38 23/114/38
f 23/114/38 28/119/38 30/120/38
f 30/120/38 34/62/38 38/68/38
f 38/68/38 44/124/38 46/69/38
f 46/69/38 52/127/38 54/128/38
f 54/128/38 58/130/38 63/70/38
f 63/70/38 11/110/38 15/112/38
f 15/112/38 23/114/38 63/70/38
f 30/120/38 38/68/38 63/70/38
f 46/69/38 54/128/38 63/70/38
f 63/70/38 23/114/38 30/120/38
