# Blender v2.76 (sub 0) OBJ File: ''
# www.blender.org
mtllib rightBumper2.mtl
o Cube_Cube.000
v 2.200020 0.820449 -0.224897
v 2.200020 -0.823155 -0.224897
v 2.200020 0.820449 -0.100373
v 2.200020 -0.823155 -0.100373
v 0.192169 0.987692 -0.247651
v 0.060649 0.469756 -0.183949
v 0.060649 0.998647 -0.183949
v 0.060649 -0.869568 -0.183950
v 0.192169 -0.990398 -0.247651
v 0.060649 -0.869568 -0.066563
v 0.192169 -0.990398 -0.002861
v 0.060649 0.998647 -0.066563
v 0.192169 0.886650 -0.002861
v 0.191907 0.987714 -0.002857
v 0.189455 0.987918 -0.013526
vt 0.617858 0.639748
vt 0.643620 0.000000
vt 0.780635 0.000000
vt 0.806397 0.639748
vt 0.000000 1.000000
vt 0.000000 0.000000
vt 0.687500 0.000000
vt 0.972550 0.000000
vt 0.817987 0.640612
vt 0.809769 0.639831
vt 0.027450 0.000000
vt 0.280635 0.000000
vt 0.306397 0.639748
vt 0.141164 0.765839
vt 0.141164 0.979023
vt 0.050751 0.979023
vt 0.949249 0.681653
vt 0.858836 0.681653
vt 0.050751 0.681653
vt 0.141164 0.681653
vt 0.687500 1.000000
vt 0.325337 0.041905
vt 0.614482 0.041905
vt 0.588720 0.681653
vt 0.335535 0.681653
vt 0.309769 0.041822
vt 0.001688 0.639748
vt 0.081472 0.681653
vt 0.000056 0.680265
vt 0.000000 0.699480
vt 0.000000 0.683393
vt 0.009902 0.681653
vt 0.308085 0.000000
vt 0.595870 0.000000
vt 0.757334 0.681653
vt 0.666921 0.681653
vt 0.287785 0.681653
vt 0.835535 0.000000
vt 0.998312 0.639748
vn 0.083000 -0.996500 -0.000000
vn 1.000000 0.000000 0.000000
vn 0.083000 0.996500 -0.000000
vn -0.345300 0.855700 0.385500
vn -0.465800 0.607900 0.643000
vn 0.011300 0.000000 -0.999900
vn -0.847300 0.000000 -0.531100
vn -1.000000 0.000000 0.000000
vn -0.183900 0.813200 0.552100
vn -0.855300 0.000000 -0.518100
vn -0.203800 0.012200 0.978900
vn 0.048500 -0.000000 0.998800
vn -0.435900 0.000000 -0.900000
vn -0.677500 -0.418600 0.604800
vn -0.710700 -0.529300 0.463400
vn -0.677500 -0.418600 -0.604800
vn -0.710700 -0.529300 -0.463400
usemtl Material.008
s 1
f 9/1/1 2/2/1 4/3/1
f 11/4/1 9/1/1 4/3/1
f 3/5/2 4/6/2 2/7/2
f 1/8/3 15/9/4 14/10/5
f 1/11/6 2/12/6 9/13/6
f 6/14/7 8/15/8 10/16/8
f 7/17/3 12/18/9 15/9/4
f 12/19/8 7/20/10 6/14/7
f 1/21/2 3/5/2 2/7/2
f 13/22/11 11/23/12 4/24/12
f 3/25/12 14/26/5 13/22/11
f 5/27/13 6/28/7 7/29/10
f 13/30/11 14/31/5 15/32/4
f 13/22/11 12/33/9 10/34/14
f 11/4/15 10/35/14 8/36/16
f 9/13/17 8/37/16 6/28/7
f 5/27/6 1/11/6 9/13/6
f 3/38/3 1/8/3 14/10/5
f 15/9/4 1/8/3 5/39/3
f 5/39/3 7/17/3 15/9/4
f 10/16/8 12/19/8 6/14/7
f 4/24/12 3/25/12 13/22/11
f 12/19/9 13/30/11 15/32/4
f 11/23/15 13/22/11 10/34/14
f 9/1/17 11/4/15 8/36/16
f 5/27/13 9/13/17 6/28/7
