# Blender v2.76 (sub 0) OBJ File: ''
# www.blender.org
mtllib testTable.mtl
o Cube.003
v 7.626395 -0.495892 -3.459749
v -2.560336 -0.495892 -3.459749
v -2.560338 0.495894 -3.459748
v 7.626398 0.495894 -3.459747
v 7.626391 0.495892 3.702423
v -4.966538 0.495893 -2.033579
v -3.884482 0.495893 -2.980014
v -3.884480 -0.495893 -2.980015
v -5.701936 0.495893 0.723368
v -5.701936 0.495893 -0.480696
v -5.701933 -0.495893 -0.480697
v -5.701934 -0.495893 0.723369
v -4.966538 -0.495893 2.276252
v -4.966535 -0.495893 -2.033580
v 7.626395 -0.495894 3.702421
v -2.560341 0.495892 3.702421
v -2.560339 -0.495894 3.702421
v -3.884484 0.495892 3.222687
v -3.884483 -0.495894 3.222687
v -4.966540 0.495893 2.276252
v -2.337005 -0.504240 -2.266611
v -2.337005 0.491078 -2.266609
v 7.627674 0.491078 -2.266609
v -2.508461 -0.495892 -3.164272
v 7.414270 -0.495892 -3.247624
v 7.414273 0.495894 -3.247622
v 7.414267 0.495892 3.490298
v -3.732022 -0.495893 -2.721654
v -3.732024 0.495893 -2.721653
v -4.727212 0.495893 -1.852693
v -5.409242 0.495893 -0.414895
v -5.409242 0.495893 0.657567
v -5.409240 -0.495893 0.657568
v -4.727212 -0.495893 2.095366
v -4.727209 -0.495893 -1.852694
v -2.508466 0.495892 3.406944
v 7.414270 -0.495894 3.490296
v -3.732026 0.495893 2.964326
v -2.508464 -0.495894 3.406944
v -4.727214 0.495893 2.095366
v -3.732025 -0.495893 2.964326
v -2.337005 0.491078 -1.966609
v -2.337005 -0.504240 -1.966611
v 7.627674 -0.504240 -1.966611
v -5.409239 -0.495893 -0.414896
v -2.508463 0.495894 -3.164271
v 7.627674 -0.504240 -2.266611
v 7.627674 0.491078 -1.966609
vt 0.720289 0.631762
vt 0.720286 0.120620
vt 0.770157 0.120620
vt 0.820034 0.609340
vt 0.869905 0.609340
vt 0.869905 0.968718
vt 0.770160 0.000000
vt 0.770158 0.054217
vt 0.720287 0.054218
vt 0.720286 0.770099
vt 0.720286 0.709682
vt 0.770157 0.709682
vt 0.770157 0.770099
vt 0.770158 0.848018
vt 0.770157 0.631762
vt 0.820034 0.631762
vt 0.820031 0.120620
vt 0.820032 0.054217
vt 0.919781 0.000000
vt 0.969829 0.000000
vt 0.969829 0.500000
vt 0.820034 0.497902
vt 0.820036 0.000000
vt 0.869907 0.000000
vt 0.869907 0.947431
vt 0.919778 0.609340
vt 0.820035 0.559333
vt 0.869906 0.559333
vt 0.820031 0.703907
vt 0.820031 0.757720
vt 0.770160 0.757720
vt 0.770160 0.829865
vt 0.869907 0.497902
vt 0.919778 0.497902
vt 0.919779 0.559333
vt 0.919781 0.500000
vt 0.969829 1.000000
vt 0.360143 0.668780
vt 0.370810 0.658136
vt 0.709620 0.658136
vt 0.360143 0.000000
vt 0.349477 0.010644
vt 0.010667 0.010644
vt 0.149799 0.668780
vt 0.071714 0.631880
vt 0.080809 0.619871
vt 0.509942 0.000000
vt 0.513251 0.014687
vt 0.440953 0.048909
vt 0.570487 0.000000
vt 0.648573 0.036900
vt 0.639477 0.048909
vt 0.210344 0.668780
vt 0.207036 0.654093
vt 0.279334 0.619871
vt 0.567179 0.014687
vt 0.153108 0.654093
vt 0.384266 0.091195
vt 0.397258 0.098845
vt 0.375001 0.160240
vt 0.024123 0.577585
vt 0.000000 0.511143
vt 0.014858 0.508540
vt 0.336020 0.577585
vt 0.323029 0.569935
vt 0.345286 0.508540
vt 0.696163 0.091195
vt 0.720286 0.157637
vt 0.705429 0.160240
vt 0.431857 0.036900
vt 0.037115 0.569935
vt 0.360143 0.157637
vt 0.000000 0.000000
vt 0.720286 0.668780
vt 0.683172 0.098845
vt 0.360143 0.511143
vt 0.288430 0.631880
vt 0.000000 0.718722
vt 0.000000 0.668780
vt 0.015085 0.668780
vt 0.984915 0.000000
vt 0.984915 0.500001
vt 0.030170 0.718722
vt 0.015085 0.718722
vt 1.000000 0.000000
vt 1.000000 0.500001
vt 0.820034 0.968718
vt 0.720289 0.000000
vt 0.720286 0.848018
vt 0.919778 0.947431
vt 0.770160 0.703907
vt 0.820031 0.829865
vt 0.919781 1.000000
vt 0.030170 0.668780
vn 0.000000 0.000000 -1.000000
vn 1.000000 -0.000000 0.000000
vn -0.658400 -0.000000 -0.752700
vn -1.000000 -0.000000 -0.000000
vn -0.903800 -0.000000 0.428000
vn -0.903800 -0.000000 -0.428000
vn -0.000000 -0.000000 1.000000
vn -0.340600 -0.000000 0.940200
vn -0.340600 0.000000 -0.940200
vn -0.658400 -0.000000 0.752700
vn 0.008400 -0.000000 1.000000
vn 0.657700 0.000000 0.753300
vn 0.903500 0.000000 -0.428600
vn 0.903500 0.000000 0.428600
vn 0.008400 0.000000 -1.000000
vn 0.340200 0.000000 -0.940400
vn 0.340200 -0.000000 0.940400
vn 0.657700 0.000000 -0.753300
vn 0.000000 -1.000000 -0.000000
vn 0.000000 1.000000 0.000000
usemtl Material.002
s off
f 1/1/1 2/2/1 3/3/1
f 1/4/2 4/5/2 5/6/2
f 6/7/3 7/8/3 8/9/3
f 9/10/4 10/11/4 11/12/4
f 9/10/5 12/13/5 13/14/5
f 10/11/6 6/1/6 14/15/6
f 15/16/7 5/15/7 16/3/7
f 17/17/8 16/3/8 18/8/8
f 2/2/9 8/9/9 7/8/9
f 19/18/10 18/8/10 20/7/10
f 21/19/1 22/20/1 23/21/1
f 24/22/11 25/23/11 26/24/11
f 27/25/4 26/5/4 25/26/4
f 28/27/12 29/28/12 30/5/12
f 31/29/2 32/30/2 33/31/2
f 34/32/13 33/31/13 32/30/13
f 35/15/14 30/16/14 31/29/14
f 36/33/15 27/24/15 37/19/15
f 38/28/16 36/33/16 39/34/16
f 29/28/17 28/27/17 24/22/17
f 40/5/18 38/28/18 41/35/18
f 42/36/7 43/21/7 44/37/7
f 15/38/19 37/39/19 25/40/19
f 4/41/20 26/42/20 27/43/20
f 9/44/20 20/45/20 40/46/20
f 12/47/19 33/48/19 34/49/19
f 11/50/19 14/51/19 35/52/19
f 10/53/20 31/54/20 30/55/20
f 12/47/19 11/50/19 45/56/19
f 9/44/20 32/57/20 31/54/20
f 19/58/19 41/59/19 39/60/19
f 18/61/20 16/62/20 36/63/20
f 7/64/20 29/65/20 46/66/20
f 8/67/19 2/68/19 24/69/19
f 13/70/19 34/49/19 41/59/19
f 20/45/20 18/61/20 38/71/20
f 15/38/19 17/72/19 39/60/19
f 5/73/20 27/43/20 36/63/20
f 1/74/19 25/40/19 24/69/19
f 14/51/19 8/67/19 28/75/19
f 4/41/20 3/76/20 46/66/20
f 6/77/20 30/55/20 29/65/20
f 47/78/2 23/79/2 48/80/2
f 47/20/19 44/81/19 43/82/19
f 21/83/4 43/84/4 42/80/4
f 22/81/20 42/85/20 48/86/20
f 13/58/20 19/72/20 14/50/20
f 4/15/1 1/1/1 3/3/1
f 15/87/2 1/4/2 5/6/2
f 14/88/3 6/7/3 8/9/3
f 12/13/4 9/10/4 11/12/4
f 20/89/5 9/10/5 13/14/5
f 11/12/6 10/11/6 14/15/6
f 17/17/7 15/16/7 16/3/7
f 19/18/8 17/17/8 18/8/8
f 3/3/9 2/2/9 7/8/9
f 13/23/10 19/18/10 20/7/10
f 47/36/1 21/19/1 23/21/1
f 46/33/11 24/22/11 26/24/11
f 37/90/4 27/25/4 25/26/4
f 35/4/12 28/27/12 30/5/12
f 45/91/2 31/29/2 33/31/2
f 40/92/13 34/32/13 32/30/13
f 45/91/14 35/15/14 31/29/14
f 39/34/15 36/33/15 37/19/15
f 41/35/16 38/28/16 39/34/16
f 46/33/17 29/28/17 24/22/17
f 34/26/18 40/5/18 41/35/18
f 48/93/7 42/36/7 44/37/7
f 1/74/19 15/38/19 25/40/19
f 5/73/20 4/41/20 27/43/20
f 32/57/20 9/44/20 40/46/20
f 13/70/19 12/47/19 34/49/19
f 45/56/19 11/50/19 35/52/19
f 6/77/20 10/53/20 30/55/20
f 33/48/19 12/47/19 45/56/19
f 10/53/20 9/44/20 31/54/20
f 17/72/19 19/58/19 39/60/19
f 38/71/20 18/61/20 36/63/20
f 3/76/20 7/64/20 46/66/20
f 28/75/19 8/67/19 24/69/19
f 19/58/19 13/70/19 41/59/19
f 40/46/20 20/45/20 38/71/20
f 37/39/19 15/38/19 39/60/19
f 16/62/20 5/73/20 36/63/20
f 2/68/19 1/74/19 24/69/19
f 35/52/19 14/51/19 28/75/19
f 26/42/20 4/41/20 46/66/20
f 7/64/20 6/77/20 29/65/20
f 44/84/2 47/78/2 48/80/2
f 21/21/19 47/20/19 43/82/19
f 22/94/4 21/83/4 42/80/4
f 23/82/20 22/81/20 48/86/20
f 11/47/20 12/70/20 13/58/20
f 17/38/20 8/51/20 19/72/20
f 1/68/20 2/67/20 15/74/20
f 8/51/20 17/38/20 2/67/20
f 11/47/20 13/58/20 14/50/20
f 2/67/20 17/38/20 15/74/20
f 19/72/20 8/51/20 14/50/20
