# Blender v2.78 (sub 0) OBJ File: 'jezzBallArrowv1.blend'
# www.blender.org
mtllib jezzBallArrowv1.mtl
o Cube
v 0.165107 0.594381 1.072532
v 0.165107 0.437315 1.072532
v -0.392038 0.594381 0.515388
v -0.392038 0.437315 0.515388
v 0.722251 0.594381 0.515388
v 0.722251 0.437315 0.515388
v 0.722251 0.437315 0.515388
v -0.392038 0.437315 0.515388
v -0.379956 0.437315 -0.590861
v -0.379956 0.594381 -0.590861
v 0.734333 0.437315 -0.590862
v 0.734333 0.594381 -0.590862
v 0.177189 0.437315 -1.148006
v 0.177189 0.594381 -1.148006
v 0.734333 0.437315 -0.590862
v -0.379956 0.437315 -0.590861
v -0.379956 0.594381 -0.590861
v 0.734334 0.594381 -0.590862
v 0.734334 0.594381 -0.590862
v -0.379956 0.594381 -0.590861
v -0.379956 0.437315 -0.590861
v 0.734333 0.437315 -0.590862
v 0.177189 0.594381 -1.148006
v 0.177189 0.437315 -1.148006
v 0.734333 0.594381 -0.590862
v 0.734333 0.437315 -0.590862
v -0.379956 0.594381 -0.590861
v -0.379956 0.437315 -0.590861
v -0.379956 0.437315 -0.590861
v -0.379956 0.594381 -0.590861
v 0.734333 0.437315 -0.590862
v 0.734333 0.594381 -0.590862
v 0.177189 0.437315 -1.148006
v 0.177189 0.594381 -1.148006
v 0.734333 0.437315 -0.590862
v -0.379956 0.437315 -0.590861
v -0.379956 0.594381 -0.590861
v 0.734334 0.594381 -0.590862
v 0.722251 0.594381 0.515387
v -0.392039 0.594381 0.515389
v -0.060355 0.593251 0.537296
v -0.060355 0.440394 0.537296
v -0.060355 0.593251 -0.611134
v -0.060355 0.440394 -0.611134
v 0.391186 0.593251 0.537296
v 0.391186 0.440394 0.537296
v 0.391186 0.593251 -0.611134
v 0.391186 0.440394 -0.611134
vt 0.6667 0.5856
vt 0.3333 1.0000
vt 0.3333 0.5859
vt 0.6667 0.5860
vt 1.0000 0.9993
vt 0.6667 0.9997
vt 1.0000 0.0000
vt 0.0000 1.0000
vt 0.0000 0.0000
vt 0.3333 0.5861
vt 0.0000 0.0000
vt 0.3333 0.0005
vt 0.6531 0.0000
vt 0.6531 0.5856
vt 0.6531 0.5856
vt 0.0000 0.0000
vt 0.3333 0.0005
vt 0.9729 0.3052
vt 0.9729 0.0000
vt 0.9729 0.3052
vt 0.9755 0.6545
vt 0.7939 0.0955
vt 0.0245 0.6545
vt 0.0000 0.0000
vt 1.0000 1.0000
vt 0.0000 1.0000
vt 0.0000 0.0000
vt 1.0000 1.0000
vt 0.0000 1.0000
vt 0.0000 0.0000
vt 1.0000 1.0000
vt 0.0000 1.0000
vt 0.9755 0.6545
vt 0.2061 0.0955
vt 0.0245 0.6545
vt 1.0000 0.0000
vt 0.0000 1.0000
vt 0.0000 0.0000
vt 0.0000 0.0000
vt 1.0000 1.0000
vt 0.0000 1.0000
vt 0.0000 0.0000
vt 1.0000 1.0000
vt 0.0000 1.0000
vt 1.0000 0.0000
vt 0.0000 1.0000
vt 0.0000 0.0000
vt 0.0000 0.0000
vt 1.0000 1.0000
vt 0.0000 1.0000
vt 0.9755 0.6545
vt 0.7939 0.0955
vt 0.0245 0.6545
vt 0.9755 0.6545
vt 0.2061 0.0955
vt 0.0245 0.6545
vt 1.0000 0.0000
vt 0.0000 1.0000
vt 0.0000 0.0000
vt 0.0000 0.0005
vt 0.3333 0.5856
vt 0.0000 0.5861
vt 0.6531 0.0000
vt 0.6531 0.5856
vt 0.6531 0.5856
vt 0.6667 0.9996
vt 1.0000 0.5859
vt 1.0000 0.9999
vt 0.9729 0.3052
vt 0.9729 0.0000
vt 0.9729 0.3052
vt 0.3333 0.9996
vt 0.6667 0.5860
vt 0.6667 1.0000
vt 0.3333 0.5856
vt 0.0000 0.5861
vt 0.6531 0.2928
vt 0.9729 0.0000
vt 0.9729 0.5856
vt 0.6531 0.2928
vt 0.9729 0.0000
vt 0.9729 0.5856
vt 0.0000 0.6699
vt 0.2779 0.0000
vt 0.2779 0.6698
vt 0.5559 0.6698
vt 0.7779 0.9999
vt 0.5559 0.9994
vt 0.5559 0.6699
vt 0.2779 0.0000
vt 0.5559 0.0001
vt 0.2221 0.9995
vt 0.0000 0.6704
vt 0.2221 0.6699
vt 1.0000 0.0000
vt 0.7779 0.6698
vt 0.7779 0.0000
vt 0.7779 0.0000
vt 0.5559 0.6698
vt 0.5559 0.0000
vt 0.6667 0.9997
vt 1.0000 0.5856
vt 1.0000 1.0000
vt 0.0000 0.5856
vt 0.3333 0.2928
vt 0.6531 0.0000
vt 0.9729 0.0000
vt 0.5000 1.0000
vt 0.2061 0.0955
vt 1.0000 0.0000
vt 1.0000 0.0000
vt 1.0000 0.0000
vt 0.5000 1.0000
vt 0.7939 0.0955
vt 1.0000 1.0000
vt 1.0000 0.0000
vt 1.0000 0.0000
vt 1.0000 1.0000
vt 1.0000 0.0000
vt 0.5000 1.0000
vt 0.2061 0.0955
vt 0.5000 1.0000
vt 0.7939 0.0955
vt 1.0000 1.0000
vt 0.3333 0.0000
vt 0.3333 0.2928
vt 0.6531 0.0000
vt 0.6667 0.5856
vt 0.9729 0.0000
vt 0.3333 0.5856
vt 0.9729 0.5856
vt 0.9729 0.0000
vt 0.9729 0.5856
vt 0.9729 0.0000
vt 0.0000 0.0001
vt 0.7779 0.6703
vt 0.2779 0.6698
vt 0.0000 1.0000
vt 1.0000 0.6698
vt 0.7779 0.6698
vn -0.7071 0.0000 0.7071
vn 0.7071 0.0000 0.7071
vn -0.7071 -0.0000 -0.7071
vn -0.0000 -0.0000 -1.0000
vn -0.0000 -0.9998 0.0211
vn 0.0000 0.0000 1.0000
vn 0.0000 -1.0000 0.0000
vn 0.0000 -0.9999 0.0170
vn 0.7071 0.0000 -0.7071
vn 1.0000 0.0000 -0.0000
vn -1.0000 0.0000 0.0000
vn -0.0000 1.0000 -0.0000
vn 0.7421 0.0000 0.6702
vn -0.9224 0.0000 0.3863
vn -0.7666 0.0000 -0.6422
usemtl Material
s off
f 1/1/1 4/2/1 2/3/1
f 6/4/2 1/5/2 2/6/2
f 10/7/3 13/8/3 9/9/3
f 8/10/4 39/11/4 7/12/4
f 5/13/5 40/14/5 3/15/5
f 7/12/6 5/16/6 6/17/6
f 4/18/6 40/19/6 8/20/6
f 13/21/7 11/22/7 16/23/7
f 15/24/6 17/25/6 16/26/6
f 16/27/6 10/28/6 9/29/6
f 11/30/6 18/31/6 15/32/6
f 10/33/8 18/34/8 12/35/8
f 14/36/9 11/37/9 13/38/9
f 21/39/6 27/40/6 28/41/6
f 22/42/6 20/43/6 21/44/6
f 23/45/9 26/46/9 24/47/9
f 26/48/6 19/49/6 22/50/6
f 24/51/7 26/52/7 21/53/7
f 27/54/8 19/55/8 25/56/8
f 27/57/3 24/58/3 28/59/3
f 35/60/6 37/61/6 36/62/6
f 30/63/8 38/64/8 32/65/8
f 34/66/9 31/67/9 33/68/9
f 31/69/6 38/70/6 35/71/6
f 30/72/3 33/73/3 29/74/3
f 36/62/6 30/75/6 29/76/6
f 33/77/7 31/78/7 36/79/7
f 2/80/7 4/81/7 7/82/7
f 42/83/10 43/84/10 41/85/10
f 44/86/6 47/87/6 43/88/6
f 47/89/11 46/90/11 45/91/11
f 46/92/4 41/93/4 45/94/4
f 47/95/7 41/96/7 43/97/7
f 44/98/12 46/99/12 48/100/12
f 1/1/1 3/101/1 4/2/1
f 6/4/2 5/102/2 1/5/2
f 10/7/3 14/103/3 13/8/3
f 8/10/4 40/104/4 39/11/4
f 3/15/12 1/105/12 5/13/12
f 5/13/12 39/106/12 40/14/12
f 7/12/4 39/11/4 5/16/4
f 4/18/13 3/107/13 40/19/13
f 16/23/6 9/108/6 13/21/6
f 11/22/6 15/109/6 16/23/6
f 15/24/6 18/110/6 17/25/6
f 16/27/14 17/111/14 10/28/14
f 11/30/15 12/112/15 18/31/15
f 12/35/12 14/113/12 10/33/12
f 10/33/12 17/114/12 18/34/12
f 14/36/9 12/115/9 11/37/9
f 21/39/14 20/116/14 27/40/14
f 22/42/6 19/117/6 20/43/6
f 23/45/9 25/118/9 26/46/9
f 26/48/15 25/119/15 19/49/15
f 21/53/6 28/120/6 24/51/6
f 26/52/6 22/121/6 21/53/6
f 25/56/12 23/122/12 27/54/12
f 27/54/12 20/123/12 19/55/12
f 27/57/3 23/124/3 24/58/3
f 35/60/6 38/125/6 37/61/6
f 32/65/12 34/126/12 30/63/12
f 30/63/12 37/127/12 38/64/12
f 34/66/9 32/128/9 31/67/9
f 31/69/15 32/129/15 38/70/15
f 30/72/3 34/130/3 33/73/3
f 36/62/14 37/61/14 30/75/14
f 36/79/6 29/131/6 33/77/6
f 31/78/6 35/132/6 36/79/6
f 7/82/6 6/133/6 2/80/6
f 4/81/6 8/134/6 7/82/6
f 42/83/10 44/135/10 43/84/10
f 44/86/6 48/136/6 47/87/6
f 47/89/11 48/137/11 46/90/11
f 46/92/4 42/138/4 41/93/4
f 47/95/7 45/139/7 41/96/7
f 44/98/12 42/140/12 46/99/12
