# Blender v2.76 (sub 0) OBJ File: ''
# www.blender.org
mtllib jezzBallArrow_v2.mtl
o Cube.002
v 0.010312 0.594381 1.072532
v -0.546833 0.437315 0.515388
v 0.010312 0.437315 1.072532
v 0.567456 0.437315 0.515388
v -0.534751 0.594381 -0.590861
v 0.022394 0.437315 -1.148006
v -0.534751 0.437315 -0.590861
v -0.546833 0.437315 0.515388
v 0.567456 0.594381 0.515387
v 0.567456 0.437315 0.515388
v 0.567456 0.594381 0.515388
v -0.546834 0.594381 0.515389
v -0.546833 0.594381 0.515388
v 0.579538 0.437315 -0.590862
v -0.534751 0.437315 -0.590861
v 0.579538 0.437315 -0.590862
v -0.534751 0.594381 -0.590861
v 0.579539 0.594381 -0.590862
v 0.579538 0.594381 -0.590862
v 0.022394 0.594381 -1.148006
v -0.534751 0.437315 -0.590861
v -0.534751 0.594381 -0.590861
v -0.534751 0.437315 -0.590861
v 0.579538 0.437315 -0.590862
v -0.534751 0.594381 -0.590861
v 0.022394 0.594381 -1.148006
v 0.579538 0.437315 -0.590862
v 0.022394 0.437315 -1.148006
v 0.579539 0.594381 -0.590862
v 0.579538 0.594381 -0.590862
v 0.579538 0.437315 -0.590862
v -0.534751 0.594381 -0.590861
v -0.534751 0.437315 -0.590861
v -0.534751 0.594381 -0.590861
v 0.579539 0.594381 -0.590862
v 0.579538 0.594381 -0.590862
v 0.022394 0.594381 -1.148006
v 0.579538 0.437315 -0.590862
v 0.022394 0.437315 -1.148006
v -0.534751 0.437315 -0.590861
v -0.215150 0.440394 0.537296
v -0.215150 0.593251 -0.611134
v -0.215150 0.593251 0.537296
v -0.215150 0.440394 -0.611134
v 0.236391 0.593251 -0.611134
v 0.236391 0.440394 0.537296
v 0.236391 0.593251 0.537296
v 0.236391 0.440394 -0.611134
vt 0.666700 0.585600
vt 0.333300 1.000000
vt 0.333300 0.585900
vt 0.666700 0.586000
vt 1.000000 0.999300
vt 0.666700 0.999700
vt 1.000000 0.000000
vt 0.000000 1.000000
vt 0.000000 0.000000
vt 0.333300 0.586100
vt 0.333300 0.000500
vt 0.653100 0.000000
vt 0.653100 0.585600
vt 0.972900 0.305200
vt 0.972900 0.000000
vt 0.975500 0.654500
vt 0.793900 0.095500
vt 0.024500 0.654500
vt 1.000000 1.000000
vt 0.206100 0.095500
vt 0.000000 0.000500
vt 0.333300 0.585600
vt 0.000000 0.586100
vt 0.666700 0.999600
vt 1.000000 0.585900
vt 1.000000 0.999900
vt 0.333300 0.999600
vt 0.666700 1.000000
vt 0.653100 0.292800
vt 0.972900 0.585600
vt 0.000000 0.669900
vt 0.277900 0.000000
vt 0.277900 0.669800
vt 0.555900 0.669800
vt 0.777900 0.999900
vt 0.555900 0.999400
vt 0.555900 0.669900
vt 0.555900 0.000100
vt 0.222100 0.999500
vt 0.000000 0.670400
vt 0.222100 0.669900
vt 0.777900 0.669800
vt 0.777900 0.000000
vt 0.555900 0.000000
vt 1.000000 0.585600
vt 0.000000 0.585600
vt 0.333300 0.292800
vt 0.500000 1.000000
vt 0.333300 0.000000
vt 0.000000 0.000100
vt 0.777900 0.670300
vt 1.000000 0.669800
vn -0.707100 0.000000 0.707100
vn 0.707100 0.000000 0.707100
vn -0.707100 0.000000 -0.707100
vn -0.000000 0.000000 -1.000000
vn 0.000000 -0.999800 0.021100
vn 0.000000 0.000000 1.000000
vn -0.000000 -1.000000 0.000000
vn -0.000000 -0.999900 0.017000
vn 0.707100 0.000000 -0.707100
vn 1.000000 0.000000 0.000000
vn -1.000000 0.000000 0.000000
vn 0.000000 1.000000 0.000000
vn 0.742100 -0.000000 0.670200
vn 0.742200 -0.000000 0.670200
vn -0.922400 -0.000000 0.386300
vn 0.000000 0.000000 0.386300
vn -0.766600 -0.000000 -0.642200
vn 0.000000 0.000000 -0.000000
usemtl Material.002
s 1
f 1/1/1 2/2/1 3/3/1
f 4/4/2 1/5/2 3/6/2
f 5/7/3 6/8/3 7/9/3
f 8/10/4 9/9/4 10/11/4
f 11/12/5 12/13/5 13/13/5
f 10/11/6 11/9/6 4/11/6
f 2/14/6 12/15/6 8/14/6
f 6/16/7 14/17/7 15/18/7
f 16/9/6 17/19/6 15/8/6
f 15/9/6 5/19/6 7/8/6
f 14/9/6 18/19/6 16/8/6
f 5/16/8 18/20/8 19/18/8
f 20/7/9 14/8/9 6/9/9
f 21/9/6 22/19/6 23/8/6
f 24/9/6 25/19/6 21/8/6
f 26/7/9 27/8/9 28/9/9
f 27/9/6 29/19/6 24/8/6
f 28/16/7 27/17/7 21/18/7
f 22/16/8 29/20/8 30/18/8
f 22/7/3 28/8/3 23/9/3
f 31/21/6 32/22/6 33/23/6
f 34/12/8 35/13/8 36/13/8
f 37/24/9 38/25/9 39/26/9
f 38/14/6 35/15/6 31/14/6
f 34/27/3 39/4/3 40/28/3
f 33/23/6 34/22/6 40/23/6
f 39/29/7 38/15/7 33/30/7
f 3/29/7 2/15/7 10/30/7
f 41/31/10 42/32/10 43/33/10
f 44/34/6 45/35/6 42/36/6
f 45/37/11 46/32/11 47/38/11
f 46/39/4 43/40/4 47/41/4
f 45/7/7 43/42/7 42/43/7
f 44/43/12 46/34/12 48/44/12
f 1/1/1 13/6/1 2/2/1
f 4/4/2 11/45/2 1/5/2
f 5/7/3 20/19/3 6/8/3
f 8/10/4 12/46/4 9/9/4
f 13/13/12 1/47/12 11/12/12
f 11/12/12 9/12/12 12/13/12
f 10/11/4 9/9/4 11/9/4
f 2/14/13 13/15/14 12/15/13
f 15/18/6 7/48/6 6/16/6
f 14/17/6 16/20/6 15/18/6
f 16/9/6 18/7/6 17/19/6
f 15/9/15 17/7/16 5/19/15
f 14/9/17 19/7/17 18/19/17
f 19/18/12 20/48/12 5/16/12
f 5/16/18 17/17/12 18/20/12
f 20/7/9 19/19/9 14/8/9
f 21/9/15 25/7/16 22/19/15
f 24/9/6 29/7/6 25/19/6
f 26/7/9 30/19/9 27/8/9
f 27/9/17 30/7/17 29/19/17
f 21/18/6 23/48/6 28/16/6
f 27/17/6 24/20/6 21/18/6
f 30/18/12 26/48/12 22/16/12
f 22/16/18 25/17/12 29/20/12
f 22/7/3 26/19/3 28/8/3
f 31/21/6 35/49/6 32/22/6
f 36/13/12 37/47/12 34/12/12
f 34/12/18 32/12/12 35/13/12
f 37/24/9 36/1/9 38/25/9
f 38/14/17 36/15/17 35/15/17
f 34/27/3 37/22/3 39/4/3
f 33/23/15 32/22/16 34/22/15
f 33/30/6 40/30/6 39/29/6
f 38/15/6 31/15/6 33/30/6
f 10/30/6 4/30/6 3/29/6
f 2/15/6 8/15/6 10/30/6
f 41/31/10 44/50/10 42/32/10
f 44/34/6 48/51/6 45/35/6
f 45/37/11 48/33/11 46/32/11
f 46/39/4 41/8/4 43/40/4
f 45/7/7 47/52/7 43/42/7
f 44/43/12 41/42/12 46/34/12
