# Blender v2.76 (sub 0) OBJ File: ''
# www.blender.org
mtllib JezzBoard2.mtl
o Cube_Cube.003
v -14.553894 1.000000 -8.500000
v -14.553894 -1.000000 -8.500000
v -14.553894 -1.000000 8.500000
v 14.553894 1.000000 -8.500000
v 14.553894 -1.000000 -8.500000
v 14.553894 1.000000 8.500000
v 14.553894 -1.000000 8.500000
v -14.553894 1.000000 8.500000
v -13.565344 -0.422651 -7.922651
v -13.343210 1.000000 -7.792917
v -13.343210 1.000000 7.792917
v 13.565344 -0.422651 -7.922651
v 13.343210 1.000000 -7.792917
v 13.565344 -0.422651 7.922651
v 13.343210 1.000000 7.792917
v -13.565344 -0.422651 7.922651
vt 0.319618 0.466038
vt 0.350032 0.466038
vt 0.350032 0.966038
vt 0.258789 0.466038
vt 0.289203 0.466038
vt 0.289203 0.966038
vt 0.380446 0.966038
vt 0.319618 0.966038
vt 0.258789 1.000000
vt 0.000000 1.000000
vt 0.000000 0.500000
vt 0.445619 0.466038
vt 0.467343 0.469854
vt 0.467343 0.928261
vt 0.423895 0.932077
vt 0.402170 0.928261
vt 0.402170 0.469854
vt 0.445619 0.932077
vt 0.423895 0.928261
vt 0.423895 0.469854
vt 0.380446 0.466038
vt 0.258789 0.000000
vt 0.500000 0.000000
vt 0.500000 0.466038
vt 0.010764 0.479203
vt 0.248025 0.479203
vt 0.258789 0.500000
vt 0.248025 0.020797
vt 0.010764 0.020797
vt 0.000000 0.000000
vt 0.258789 0.966038
vt 0.423895 0.466038
vt 0.380446 0.932077
vn -1.000000 0.000000 0.000000
vn 0.000000 0.000000 -1.000000
vn 1.000000 0.000000 0.000000
vn 0.000000 0.000000 1.000000
vn 0.000000 -1.000000 -0.000000
vn 0.988000 -0.154300 -0.000000
vn 0.000000 -0.090800 0.995900
vn -0.988000 -0.154300 -0.000000
vn 0.000000 -0.090800 -0.995900
vn 0.000000 1.000000 0.000000
usemtl Material.002
s 1
f 1/1/1 2/2/1 3/3/1
f 4/4/2 5/5/2 2/6/2
f 6/7/3 7/3/3 5/2/3
f 8/8/4 3/6/4 7/5/4
f 2/9/5 5/10/5 7/11/5
f 9/12/6 10/13/6 11/14/6
f 12/15/7 13/16/7 10/17/7
f 14/18/8 15/19/8 13/20/8
f 16/21/9 11/17/9 15/16/9
f 12/22/10 9/23/10 16/24/10
f 8/11/10 11/25/10 10/26/10
f 1/27/10 10/26/10 13/28/10
f 4/22/10 13/28/10 15/29/10
f 6/30/10 15/29/10 11/25/10
f 8/8/1 1/1/1 3/3/1
f 1/31/2 4/4/2 2/6/2
f 4/21/3 6/7/3 5/2/3
f 6/1/4 8/8/4 7/5/4
f 3/27/5 2/9/5 7/11/5
f 16/18/6 9/12/6 11/14/6
f 9/32/7 12/15/7 10/17/7
f 12/12/8 14/18/8 13/20/8
f 14/33/9 16/21/9 15/16/9
f 14/4/10 12/22/10 16/24/10
f 1/27/10 8/11/10 10/26/10
f 4/22/10 1/27/10 13/28/10
f 6/30/10 4/22/10 15/29/10
f 8/11/10 6/30/10 11/25/10
