# Blender v2.76 (sub 0) OBJ File: ''
# www.blender.org
mtllib wall_v4.mtl
o Cube.001
v 0.500000 -0.874471 0.359075
v -0.500000 -0.874471 0.359075
v -0.500000 -0.874471 -0.359075
v -0.500000 0.874471 -0.359075
v -0.500000 0.874471 0.359075
v 0.499999 0.874471 0.359075
v 0.500000 0.874471 -0.359075
v 0.500000 -0.874471 -0.359075
vt 0.333333 0.666667
vt 0.333333 1.000000
vt 0.000000 1.000000
vt 0.666667 0.666667
vt 0.333333 0.333333
vt 0.333333 0.000000
vt 0.666667 0.000000
vt 0.000000 0.000000
vt 0.666667 0.333333
vt 1.000000 0.000000
vt 0.000000 0.666667
vt 0.000000 0.333333
vt 1.000000 0.333333
vn 0.000000 -1.000000 0.000000
vn 0.000000 1.000000 0.000000
vn 1.000000 0.000000 0.000000
vn 0.000000 -0.000000 1.000000
vn -1.000000 0.000000 0.000000
vn 0.000000 0.000000 -1.000000
usemtl Material.001
s 1
f 1/1/1 2/2/1 3/3/1
f 4/4/2 5/1/2 6/5/2
f 7/5/3 6/6/3 1/7/3
f 6/8/4 5/6/4 2/5/4
f 5/9/5 4/7/5 3/10/5
f 8/5/6 3/1/6 4/11/6
f 8/11/1 1/1/1 3/3/1
f 7/9/2 4/4/2 6/5/2
f 8/9/3 7/5/3 1/7/3
f 1/12/4 6/8/4 2/5/4
f 2/13/5 5/9/5 3/10/5
f 7/12/6 8/5/6 4/11/6
