# Blender v2.78 (sub 0) OBJ File: ''
# www.blender.org
mtllib wall_v2.mtl
o Cube.001
v 1.595761 0.992578 -1.468503
v 1.595761 0.992578 -0.677546
v -0.496238 0.992578 -0.677546
v -0.496237 0.992578 -1.468503
v 1.595761 2.351518 -1.468503
v 1.595760 2.351518 -0.677546
v -0.496238 2.351518 -0.677546
v -0.496238 2.351518 -1.468503
vt 0.7142 0.0000
vt 0.3571 0.5000
vt 0.3571 0.0000
vt 0.3571 0.5000
vt 0.0000 0.0000
vt 0.3571 0.0000
vt 0.2858 1.0000
vt 0.5716 0.5000
vt 0.5716 1.0000
vt 0.2858 0.5000
vt 0.0000 1.0000
vt 0.0000 0.5000
vt 0.7142 0.5000
vt 1.0000 0.0000
vt 1.0000 0.5000
vt 0.5716 0.5000
vt 0.8574 1.0000
vt 0.5716 1.0000
vt 0.7142 0.5000
vt 0.0000 0.5000
vt 0.2858 1.0000
vt 0.7142 0.0000
vt 0.8574 0.5000
vn 0.0000 -1.0000 0.0000
vn 0.0000 1.0000 0.0000
vn 1.0000 0.0000 0.0000
vn 0.0000 -0.0000 1.0000
vn -1.0000 0.0000 -0.0000
vn 0.0000 0.0000 -1.0000
usemtl Material
s off
f 2/1/1 4/2/1 1/3/1
f 8/4/2 6/5/2 5/6/2
f 5/7/3 2/8/3 1/9/3
f 6/10/4 3/11/4 2/12/4
f 7/13/5 4/14/5 3/15/5
f 5/16/6 4/17/6 8/18/6
f 2/1/1 3/19/1 4/2/1
f 8/4/2 7/20/2 6/5/2
f 5/7/3 6/10/3 2/8/3
f 6/10/4 7/21/4 3/11/4
f 7/13/5 8/22/5 4/14/5
f 5/16/6 1/23/6 4/17/6
