# Blender v2.77 (sub 0) OBJ File: 'pinballtable.blend'
# www.blender.org
o Cube
v 3.500000 -0.548024 -1.900000
v 3.500000 -0.548024 1.900000
v -3.500000 -0.548024 1.900000
v -3.499999 -0.548024 -1.900001
v 3.500002 0.548024 -1.899999
v 3.499998 0.548024 1.900001
v -3.500001 0.548024 1.899999
v -3.500000 0.548024 -1.900000
v 3.150000 -0.493222 -1.710000
v -3.149999 -0.493222 -1.710001
v -3.150000 -0.493222 1.710000
v 3.150000 -0.493222 1.710000
v 3.149998 0.548024 1.710001
v 3.150001 0.548024 -1.709999
v -3.150001 0.548024 1.709999
v -3.150000 0.548024 -1.710000
vn 0.0000 -1.0000 0.0000
vn 1.0000 -0.0000 0.0000
vn 0.0000 -0.0000 1.0000
vn -1.0000 -0.0000 -0.0000
vn 0.0000 0.0000 -1.0000
vn 0.0000 1.0000 0.0000
s off
f 2//1 4//1 1//1
f 5//2 2//2 1//2
f 6//3 3//3 2//3
f 7//4 4//4 3//4
f 1//5 8//5 5//5
f 10//6 12//6 9//6
f 12//4 14//4 9//4
f 11//5 13//5 12//5
f 11//2 16//2 15//2
f 16//3 9//3 14//3
f 6//6 15//6 7//6
f 5//6 13//6 6//6
f 7//6 16//6 8//6
f 8//6 14//6 5//6
f 2//1 3//1 4//1
f 5//2 6//2 2//2
f 6//3 7//3 3//3
f 7//4 8//4 4//4
f 1//5 4//5 8//5
f 10//6 11//6 12//6
f 12//4 13//4 14//4
f 11//5 15//5 13//5
f 11//2 10//2 16//2
f 16//3 10//3 9//3
f 6//6 13//6 15//6
f 5//6 14//6 13//6
f 7//6 15//6 16//6
f 8//6 16//6 14//6
