# Blender v2.78 (sub 0) OBJ File: ''
# www.blender.org
mtllib four.mtl
o Text
v 0.515971 0.043000 -0.345841
v 0.515971 0.043000 -0.227679
v 0.437861 0.043000 -0.227679
v 0.437861 0.043000 0.012001
v 0.308999 0.043000 0.012001
v 0.308999 0.043000 -0.227679
v -0.000231 0.043000 -0.227679
v -0.000231 0.043000 -0.292111
v 0.375230 0.043000 -0.751371
v 0.437861 0.043000 -0.751371
v 0.437861 0.043000 -0.345841
v 0.308999 0.043000 -0.345841
v 0.308999 0.043000 -0.529419
v 0.324609 0.043000 -0.529419
v 0.176989 0.043000 -0.345841
v 0.515971 -0.043000 -0.345841
v 0.515971 -0.043000 -0.227679
v 0.437861 -0.043000 -0.227679
v 0.437861 -0.043000 0.012001
v 0.308999 -0.043000 0.012001
v 0.308999 -0.043000 -0.227679
v -0.000231 -0.043000 -0.227679
v -0.000231 -0.043000 -0.292111
v 0.375230 -0.043000 -0.751371
v 0.437861 -0.043000 -0.751371
v 0.437861 -0.043000 -0.345841
v 0.308999 -0.043000 -0.345841
v 0.308999 -0.043000 -0.529419
v 0.324609 -0.043000 -0.529419
v 0.176989 -0.043000 -0.345841
v 0.515971 -0.043000 -0.345841
v 0.515971 0.043000 -0.345841
v 0.515971 -0.043000 -0.227679
v 0.515971 0.043000 -0.227679
v 0.437861 -0.043000 -0.227679
v 0.437861 0.043000 -0.227679
v 0.437861 -0.043000 0.012001
v 0.437861 0.043000 0.012001
v 0.308999 -0.043000 0.012001
v 0.308999 0.043000 0.012001
v 0.308999 -0.043000 -0.227679
v 0.308999 0.043000 -0.227679
v -0.000231 -0.043000 -0.227679
v -0.000231 0.043000 -0.227679
v -0.000231 -0.043000 -0.292111
v -0.000231 0.043000 -0.292111
v 0.375230 -0.043000 -0.751371
v 0.375230 0.043000 -0.751371
v 0.437861 -0.043000 -0.751371
v 0.437861 0.043000 -0.751371
v 0.437861 -0.043000 -0.345841
v 0.437861 0.043000 -0.345841
v 0.308999 -0.043000 -0.345841
v 0.308999 0.043000 -0.345841
v 0.308999 -0.043000 -0.529419
v 0.308999 0.043000 -0.529419
v 0.324609 -0.043000 -0.529419
v 0.324609 0.043000 -0.529419
v 0.176989 -0.043000 -0.345841
v 0.176989 0.043000 -0.345841
vt 0.5000 0.0000
vt 0.6429 0.0000
vt 0.5714 0.0000
vt 0.8571 0.0000
vt 0.9286 0.0000
vt 0.7143 0.0000
vt 1.0000 0.0000
vt 0.7857 0.0000
vt 0.0000 0.0000
vt 0.0714 0.0000
vt 0.4286 0.0000
vt 0.3571 0.0000
vt 0.2857 0.0000
vt 0.1429 0.0000
vt 0.2143 0.0000
vt 0.6429 0.0000
vt 0.5000 0.0000
vt 0.5714 0.0000
vt 0.8571 0.0000
vt 0.9286 0.0000
vt 0.7143 0.0000
vt 1.0000 0.0000
vt 0.7857 0.0000
vt 0.0000 0.0000
vt 0.0714 0.0000
vt 0.4286 0.0000
vt 0.3571 0.0000
vt 0.1429 0.0000
vt 0.2857 0.0000
vt 0.2143 0.0000
vt 0.0000 1.0000
vt 0.0909 1.0000
vt 0.0909 0.0000
vt 0.0000 0.0000
vt 0.1818 1.0000
vt 0.1818 0.0000
vt 0.2727 1.0000
vt 0.2727 0.0000
vt 0.3636 1.0000
vt 0.3636 0.0000
vt 0.4545 1.0000
vt 0.4545 0.0000
vt 0.5455 1.0000
vt 0.5455 0.0000
vt 0.6364 1.0000
vt 0.6364 0.0000
vt 0.7273 1.0000
vt 0.7273 0.0000
vt 0.8182 1.0000
vt 0.8182 0.0000
vt 0.9091 1.0000
vt 0.9091 0.0000
vt 1.0000 1.0000
vt 1.0000 0.0000
vt 0.0000 1.0000
vt 0.2500 1.0000
vt 0.2500 0.0000
vt 0.0000 0.0000
vt 0.5000 1.0000
vt 0.5000 0.0000
vt 0.7500 1.0000
vt 0.7500 0.0000
vt 1.0000 1.0000
vt 1.0000 0.0000
vn 0.0000 1.0000 0.0000
vn 0.0000 0.0000 1.0000
vn 0.0000 -1.0000 0.0000
vn 0.7071 0.0000 -0.7071
vn 0.7071 0.0000 0.7071
vn -0.7071 0.0000 0.7071
vn -0.9418 0.0000 -0.3360
vn -0.4284 0.0000 -0.9036
vn -0.7071 0.0000 -0.7071
vn 0.9018 0.0000 -0.4321
usemtl Material.001
s off
f 8/1/1 10/2/1 9/3/1
f 8/1/1 13/4/1 10/2/1
f 13/4/1 14/5/1 10/2/1
f 14/5/1 11/6/1 10/2/1
f 8/1/1 15/7/1 13/4/1
f 15/7/1 12/8/1 13/4/1
f 15/7/1 11/6/1 14/5/1
f 8/1/1 11/6/1 15/7/1
f 8/1/1 1/9/1 11/6/1
f 8/1/1 2/10/1 1/9/1
f 7/11/1 2/10/1 8/1/1
f 6/12/2 2/10/2 7/11/2
f 5/13/1 3/14/1 6/12/1
f 3/14/2 2/10/2 6/12/2
f 5/13/1 4/15/1 3/14/1
f 25/16/3 23/17/3 24/18/3
f 28/19/3 23/17/3 25/16/3
f 29/20/3 28/19/3 25/16/3
f 26/21/3 29/20/3 25/16/3
f 30/22/3 23/17/3 28/19/3
f 27/23/3 30/22/3 28/19/3
f 26/21/3 30/22/3 29/20/3
f 26/21/3 23/17/3 30/22/3
f 16/24/3 23/17/3 26/21/3
f 17/25/3 23/17/3 16/24/3
f 17/25/3 22/26/3 23/17/3
f 17/25/2 21/27/2 22/26/2
f 18/28/3 20/29/3 21/27/3
f 17/25/2 18/28/2 21/27/2
f 19/30/3 20/29/3 18/28/3
s 1
f 32/31/4 34/32/5 33/33/5 31/34/4
f 34/32/5 36/35/5 35/36/5 33/33/5
f 36/35/5 38/37/5 37/38/5 35/36/5
f 38/37/5 40/39/6 39/40/6 37/38/5
f 40/39/6 42/41/6 41/42/6 39/40/6
f 42/41/6 44/43/6 43/44/6 41/42/6
f 44/43/6 46/45/7 45/46/7 43/44/6
f 46/45/7 48/47/8 47/48/8 45/46/7
f 48/47/8 50/49/4 49/50/4 47/48/8
f 50/49/4 52/51/4 51/52/4 49/50/4
f 52/51/4 32/53/4 31/54/4 51/52/4
f 54/55/9 56/56/9 55/57/9 53/58/9
f 56/56/9 58/59/10 57/60/10 55/57/9
f 58/59/10 60/61/10 59/62/10 57/60/10
f 60/61/10 54/63/9 53/64/9 59/62/10
