# Blender v2.78 (sub 0) OBJ File: ''
# www.blender.org
mtllib one.mtl
o Text
v 0.204139 0.043000 0.012001
v 0.204139 0.043000 -0.741741
v 0.333001 0.043000 -0.741741
v 0.333001 0.043000 0.012001
v 0.204139 -0.043000 0.012001
v 0.204139 -0.043000 -0.741741
v 0.333001 -0.043000 -0.741741
v 0.333001 -0.043000 0.012001
v 0.204139 -0.043000 0.012001
v 0.204139 0.043000 0.012001
v 0.204139 -0.043000 -0.741741
v 0.204139 0.043000 -0.741741
v 0.333001 -0.043000 -0.741741
v 0.333001 0.043000 -0.741741
v 0.333001 -0.043000 0.012001
v 0.333001 0.043000 0.012001
vt 0.0000 0.0000
vt 0.6667 0.0000
vt 0.3333 0.0000
vt 1.0000 0.0000
vt 0.6667 0.0000
vt 0.0000 0.0000
vt 0.3333 0.0000
vt 1.0000 0.0000
vt 0.0000 1.0000
vt 0.2500 1.0000
vt 0.2500 0.0000
vt 0.0000 0.0000
vt 0.5000 1.0000
vt 0.5000 0.0000
vt 0.7500 1.0000
vt 0.7500 0.0000
vt 1.0000 1.0000
vt 1.0000 0.0000
vn 0.0000 1.0000 0.0000
vn 0.0000 -1.0000 0.0000
vn -0.7071 0.0000 0.7071
vn -0.7071 0.0000 -0.7071
vn 0.7071 0.0000 -0.7071
vn 0.7071 0.0000 0.7071
usemtl Material.001
s off
f 1/1/1 3/2/1 2/3/1
f 1/1/1 4/4/1 3/2/1
f 7/5/2 5/6/2 6/7/2
f 8/8/2 5/6/2 7/5/2
s 1
f 10/9/3 12/10/4 11/11/4 9/12/3
f 12/10/4 14/13/5 13/14/5 11/11/4
f 14/13/5 16/15/6 15/16/6 13/14/5
f 16/15/6 10/17/3 9/18/3 15/16/6
